<svg width="17" height="17" viewBox="0 0 17 17" fill="none" xmlns="http://www.w3.org/2000/svg">
<path d="M13.55 7.13031C13.55 7.13031 13.188 11.6203 12.978 13.5116C12.878 14.415 12.32 14.9443 11.406 14.961C9.66663 14.9923 7.92529 14.9943 6.18663 14.9576C5.30729 14.9396 4.75863 14.4036 4.66063 13.5163C4.44929 11.6083 4.08929 7.13031 4.08929 7.13031" stroke="black" stroke-linecap="round" stroke-linejoin="round"/>
<path d="M14.4721 4.97797H3.16681" stroke="black" stroke-linecap="round" stroke-linejoin="round"/>
<path d="M12.2938 4.97798C11.7704 4.97798 11.3198 4.60798 11.2171 4.09531L11.0551 3.28464C10.9551 2.91064 10.6164 2.65198 10.2304 2.65198H7.40843C7.02243 2.65198 6.68376 2.91064 6.58376 3.28464L6.42176 4.09531C6.31909 4.60798 5.86843 4.97798 5.34509 4.97798" stroke="black" stroke-linecap="round" stroke-linejoin="round"/>
</svg>